<!DOCTYPE svg PUBLIC "-//W3C//DTD SVG 20010904//EN" "http://www.w3.org/TR/2001/REC-SVG-20010904/DTD/svg10.dtd">
<svg version="1.0" xmlns="http://www.w3.org/2000/svg" width="940px" height="258px" viewBox="0 0 9400 2580" preserveAspectRatio="xMidYMid meet">
<g id="layer1" fill="#fefefe" stroke="none">
 <path d="M1502 2555 c9 -20 8 -38 -5 -85 -23 -80 -21 -108 7 -149 24 -35 25 -37 11 -113 -7 -42 -16 -82 -20 -87 -8 -14 -69 -14 -119 0 -21 6 -46 12 -55 15 -9 2 -43 11 -77 21 -52 14 -67 15 -107 3 -83 -23 -112 -93 -78 -185 28 -75 27 -92 -9 -110 -38 -20 -69 -12 -110 28 -56 55 -72 98 -74 197 -1 50 -6 72 -23 96 -29 40 -42 75 -55 144 -27 149 -117 230 -254 230 -61 0 -71 -3 -114 -36 -31 -24 -55 -53 -68 -83 -25 -57 -72 -212 -72 -238 0 -29 31 -52 100 -74 109 -34 199 -19 220 36 5 13 7 57 4 97 -9 131 26 127 67 -6 13 -44 19 -84 16 -110 -4 -32 2 -56 28 -111 19 -38 44 -92 56 -120 46 -101 92 -140 182 -153 41 -6 52 -11 55 -27 1 -11 10 -44 19 -73 14 -48 14 -55 0 -69 -12 -13 -23 -13 -71 -3 -49 10 -60 9 -82 -5 -14 -9 -27 -22 -30 -29 -3 -7 18 -61 46 -120 27 -59 53 -119 56 -132 4 -14 28 -48 55 -75 49 -50 55 -63 43 -93 -8 -21 -52 -21 -226 1 -132 16 -138 16 -158 -2 -26 -24 -25 -41 3 -68 167 -159 292 -288 307 -317 10 -20 24 -65 30 -101 6 -35 25 -90 42 -122 40 -75 237 -275 296 -301 48 -22 50 -26 22 -51 -22 -19 -26 -65 -10 -95 5 -10 30 -26 55 -35 56 -22 97 -16 218 32 96 37 180 52 307 53 84 0 173 20 200 45 10 9 24 28 30 43 7 15 52 63 102 107 139 123 166 154 204 230 46 94 54 139 60 355 6 212 15 250 78 343 24 34 53 82 66 107 12 24 35 56 50 70 15 14 32 36 39 49 11 20 10 26 -8 44 l-21 21 -67 -23 c-38 -12 -87 -31 -110 -42 -23 -11 -57 -23 -76 -26 -30 -5 -36 -2 -42 18 -8 28 -56 106 -103 169 -28 37 -32 51 -30 89 3 45 4 46 49 58 40 12 52 22 95 83 27 39 75 107 107 151 76 105 107 173 105 230 -2 37 10 67 70 187 l72 142 -655 0 -655 0 12 -25z m578 -2355 c0 -5 -8 -10 -17 -10 -10 0 -28 -3 -40 -6 -13 -4 -23 -2 -23 4 0 11 21 19 58 21 12 0 22 -3 22 -9z m-575 -70 c-3 -5 -17 -10 -31 -10 -13 0 -24 5 -24 10 0 6 14 10 31 10 17 0 28 -4 24 -10z"/>
 <path d="M3075 2318 c-16 -5 -48 -10 -70 -11 -44 -2 -52 -16 -54 -94 -1 -32 4 -45 18 -53 28 -14 28 -14 47 26 23 48 71 70 120 54 101 -34 79 -177 -64 -437 -100 -181 -116 -219 -105 -256 12 -42 48 -65 115 -73 l58 -6 20 48 c12 26 19 55 18 63 -5 24 -51 25 -73 1 -10 -11 -29 -20 -43 -20 -21 0 -23 3 -17 28 3 15 31 68 61 118 185 312 217 468 117 566 -43 42 -101 60 -148 46z"/>
 <path d="M5213 2319 c-81 -17 -142 -104 -164 -234 -15 -89 -5 -338 16 -420 33 -122 91 -185 171 -185 89 0 160 106 189 280 55 340 -42 596 -212 559z m69 -89 c55 -43 83 -196 68 -375 -16 -197 -56 -295 -121 -295 -54 0 -85 81 -101 262 -19 212 15 382 82 415 34 17 43 16 72 -7z"/>
 <path d="M5685 2320 c-75 -16 -126 -72 -157 -173 -20 -63 -23 -93 -23 -247 0 -137 4 -187 17 -230 36 -115 111 -190 189 -190 18 0 41 -8 51 -17 23 -21 37 -9 66 59 l21 48 -21 14 c-21 15 -49 9 -63 -14 -3 -6 -23 -10 -44 -10 -67 0 -109 64 -131 202 -14 87 -9 264 10 345 31 138 126 180 201 90 27 -32 27 -32 48 -13 27 24 26 32 -4 72 -40 52 -101 77 -160 64z"/>
 <path d="M7213 2319 c-81 -17 -141 -103 -164 -234 -15 -87 -6 -325 16 -415 31 -125 89 -190 171 -190 89 0 160 106 189 280 55 340 -42 596 -212 559z m69 -89 c56 -44 83 -195 68 -383 -10 -123 -29 -198 -63 -248 -24 -36 -67 -50 -92 -29 -51 42 -89 313 -67 476 13 99 45 173 82 191 34 17 43 16 72 -7z"/>
 <path d="M8965 2318 c-16 -5 -48 -10 -70 -11 -44 -2 -52 -16 -54 -94 -1 -33 3 -45 20 -53 24 -13 25 -13 48 32 37 68 133 72 166 7 37 -70 0 -191 -124 -414 -44 -78 -84 -159 -89 -179 -22 -77 15 -120 111 -131 l57 -6 21 46 c11 25 19 54 17 63 -5 25 -50 27 -73 2 -23 -25 -65 -27 -65 -2 0 9 23 55 51 102 197 325 234 493 132 592 -43 42 -101 60 -148 46z"/>
 <path d="M3920 2310 l-125 -5 0 -25 c0 -17 8 -29 28 -38 l27 -13 0 -322 c0 -177 -4 -327 -8 -333 -4 -6 -15 -13 -25 -17 -9 -4 -20 -14 -24 -23 -12 -33 18 -42 147 -46 l125 -3 20 37 c19 35 19 39 3 54 -15 16 -19 16 -51 0 -19 -9 -53 -16 -76 -16 l-41 0 0 40 0 40 59 0 c41 0 62 -5 71 -15 7 -9 23 -15 34 -13 19 3 21 10 21 63 0 53 -2 60 -21 63 -11 2 -27 -4 -34 -13 -9 -10 -30 -15 -71 -15 l-59 0 0 265 0 265 69 0 c54 0 74 -4 95 -21 51 -40 79 -4 46 60 -18 36 -24 41 -53 39 -17 -1 -88 -5 -157 -8z"/>
 <path d="M4765 2310 l-120 -5 0 -30 c0 -23 5 -31 23 -33 l22 -3 0 -339 0 -339 -22 -3 c-18 -2 -23 -10 -23 -33 l0 -30 80 0 80 0 3 28 c3 22 -1 30 -17 34 -21 5 -21 10 -21 344 l0 339 64 0 c54 0 69 -4 94 -25 26 -22 31 -23 50 -9 l22 15 -25 50 c-23 45 -28 49 -58 47 -17 -1 -86 -4 -152 -8z"/>
 <path d="M7625 2310 c-120 -5 -120 -5 -120 -30 0 -16 8 -28 23 -35 l22 -10 0 -337 0 -337 -22 -3 c-18 -2 -23 -10 -23 -33 l0 -30 80 0 80 0 3 28 c3 22 -1 30 -17 34 -21 5 -21 10 -21 344 l0 339 64 0 c54 0 69 -4 93 -24 22 -18 33 -22 46 -15 22 13 21 31 -3 79 -18 35 -24 40 -53 38 -17 -1 -86 -4 -152 -8z"/>
 <path d="M8593 2313 c-82 -3 -114 -7 -123 -18 -17 -20 -6 -43 25 -55 l25 -10 0 -322 c0 -178 -4 -328 -8 -334 -4 -6 -15 -13 -25 -17 -9 -4 -20 -14 -24 -23 -12 -33 18 -42 147 -46 l125 -3 20 37 c19 35 19 39 3 54 -15 16 -19 16 -51 0 -19 -9 -53 -16 -76 -16 l-41 0 0 40 0 40 64 0 c49 0 65 -4 70 -16 3 -9 15 -14 28 -12 21 3 23 8 23 63 0 53 -2 60 -21 63 -11 2 -27 -4 -34 -13 -9 -10 -30 -15 -71 -15 l-59 0 0 265 0 265 69 0 c59 0 74 -4 99 -25 29 -24 29 -24 48 -4 17 19 17 21 -4 64 -20 42 -24 45 -59 43 -21 -1 -88 -4 -150 -5z"/>
 <path d="M3324 2295 c-9 -22 3 -46 26 -52 19 -5 20 -14 20 -343 l0 -339 -22 -3 c-18 -2 -23 -10 -23 -33 l0 -30 80 0 80 0 3 28 c3 22 -1 30 -17 34 -15 4 -21 13 -21 34 l0 29 80 0 80 0 0 -29 c0 -21 -6 -30 -21 -34 -16 -4 -20 -12 -17 -34 3 -27 4 -28 74 -31 54 -2 74 1 84 12 16 20 6 46 -20 53 -19 5 -20 14 -20 342 l0 336 23 10 c14 7 22 19 22 35 0 25 -1 25 -80 25 l-80 0 -3 -28 c-3 -22 1 -30 17 -34 21 -5 21 -11 21 -274 l0 -269 -80 0 -80 0 0 268 c0 259 1 268 21 280 13 8 19 21 17 35 -3 20 -9 22 -81 25 -62 2 -78 0 -83 -13z"/>
 <path d="M4197 2304 c-15 -16 -7 -56 13 -61 20 -5 20 -14 20 -343 0 -333 0 -338 -21 -343 -16 -4 -20 -12 -17 -34 l3 -28 115 -3 c63 -2 130 0 149 3 81 15 111 119 51 175 -28 26 -30 33 -30 103 0 101 17 266 36 357 14 62 22 80 51 106 51 47 43 69 -27 69 l-54 0 -23 -66 c-31 -91 -51 -225 -59 -395 l-7 -144 -44 0 -43 0 0 268 0 267 23 10 c14 7 22 19 22 35 0 24 -2 25 -75 28 -42 1 -79 0 -83 -4z m241 -680 c31 -9 29 -42 -4 -54 -14 -6 -48 -10 -75 -10 l-49 0 0 35 0 35 53 0 c28 0 62 -3 75 -6z"/>
 <path d="M5907 2304 c-15 -15 -6 -44 18 -60 l25 -16 0 -324 0 -323 -26 -24 c-15 -14 -24 -32 -22 -43 3 -17 13 -19 78 -19 71 0 75 1 78 23 2 15 -5 32 -17 43 -14 13 -21 32 -21 54 0 19 1 35 3 35 2 0 28 -18 58 -41 48 -36 54 -44 54 -77 l0 -37 58 -3 c59 -3 87 8 87 34 0 7 -29 35 -65 61 l-66 48 6 85 c12 166 56 418 86 483 5 12 24 30 40 40 22 12 30 23 27 39 -3 20 -10 23 -56 26 l-52 3 -21 -48 c-35 -81 -58 -189 -81 -379 l-22 -183 -28 17 -28 16 0 247 0 247 26 16 c17 12 24 25 22 39 -3 20 -10 22 -78 25 -42 1 -79 0 -83 -4z"/>
 <path d="M6574 2295 c-9 -22 3 -46 26 -52 19 -5 20 -14 20 -343 l0 -339 -22 -3 c-18 -2 -23 -10 -23 -33 l0 -30 80 0 80 0 3 28 c3 22 -1 30 -17 34 -15 4 -21 13 -21 34 l0 29 80 0 80 0 0 -29 c0 -21 -6 -30 -21 -34 -16 -4 -20 -12 -17 -34 3 -27 5 -28 71 -31 40 -2 74 2 82 8 19 16 12 43 -13 55 -22 10 -22 11 -22 345 l0 335 23 10 c14 7 22 19 22 35 0 25 -1 25 -80 25 l-80 0 -3 -28 c-3 -22 1 -30 17 -34 21 -5 21 -11 21 -273 l0 -268 -76 -4 c-42 -2 -78 0 -80 3 -2 4 -4 125 -4 269 -1 256 -1 263 20 277 13 9 20 23 18 36 -3 20 -10 22 -81 25 -62 2 -78 0 -83 -13z"/>
 <path d="M7884 2295 c-9 -22 3 -46 25 -52 11 -3 21 -15 23 -27 2 -11 2 -163 0 -337 -2 -305 -3 -317 -22 -322 -11 -3 -23 -12 -26 -21 -11 -29 15 -46 69 -46 46 0 55 4 114 55 36 30 69 55 75 55 5 0 38 -25 73 -56 63 -55 64 -55 122 -52 57 3 58 3 58 33 0 23 -5 31 -22 33 l-23 3 0 337 0 337 23 10 c14 7 22 19 22 35 0 24 -2 25 -76 28 -57 2 -79 -1 -88 -12 -15 -18 2 -56 24 -56 13 0 15 -46 15 -326 l0 -326 -66 57 -65 58 -47 -45 c-91 -86 -82 -113 -82 253 l0 324 23 10 c14 7 22 19 22 35 0 24 -2 25 -83 28 -67 2 -83 0 -88 -13z"/>
 </g>
<g id="layer2" fill="#000000" stroke="none">
 <path d="M0 1290 l0 -1290 4700 0 4700 0 0 1290 0 1290 -3311 -2 -3311 -3 -71 -140 c-59 -117 -71 -147 -69 -184 3 -73 -24 -121 -208 -373 -34 -47 -53 -64 -80 -71 -52 -13 -70 -34 -70 -82 0 -29 8 -51 26 -76 48 -64 97 -143 109 -179 11 -32 15 -35 52 -34 22 0 59 10 84 21 72 34 169 65 185 59 22 -8 17 -21 -26 -71 -22 -26 -50 -66 -62 -88 -11 -23 -40 -70 -64 -104 -63 -93 -72 -131 -78 -343 -6 -217 -14 -260 -61 -357 -31 -62 -52 -87 -163 -189 -70 -64 -133 -129 -141 -143 -14 -28 -39 -51 -54 -51 -5 0 -4 7 3 15 7 8 9 22 6 31 -8 21 -81 14 -105 -11 -15 -15 -14 -18 8 -36 l23 -19 -83 0 c-138 -1 -218 -15 -319 -55 -110 -44 -188 -52 -233 -22 -34 22 -37 70 -6 103 26 28 20 38 -40 68 -64 33 -242 214 -280 285 -16 31 -35 85 -41 120 -19 105 -46 143 -204 291 -206 193 -206 202 1 177 188 -23 218 -22 237 5 26 36 19 58 -33 109 -27 26 -51 59 -55 73 -3 13 -28 72 -56 131 -27 59 -50 111 -50 115 0 23 41 31 95 20 88 -18 118 12 90 91 -8 24 -15 53 -15 65 0 31 -29 50 -83 57 -78 11 -112 38 -153 127 -14 30 -40 87 -59 125 -26 55 -32 78 -28 108 10 74 -53 237 -92 237 -24 0 -37 -49 -31 -121 3 -36 3 -75 0 -86 -13 -47 -108 -56 -214 -20 -79 27 -81 33 -45 154 51 173 100 233 197 240 45 4 63 0 118 -29 54 -28 69 -41 92 -83 15 -27 30 -70 34 -95 9 -61 29 -115 56 -153 18 -25 23 -47 24 -97 2 -103 20 -146 85 -209 49 -49 81 -57 121 -34 52 30 56 45 30 118 -36 104 -18 155 61 176 38 11 54 10 104 -4 32 -10 65 -19 74 -21 9 -3 34 -9 55 -15 60 -17 108 -14 128 8 10 10 24 54 31 98 14 77 14 78 -11 114 -28 41 -30 69 -7 149 13 47 14 65 5 85 l-12 25 -755 0 -755 0 0 -1290z m3217 966 c78 -83 48 -237 -93 -482 -96 -165 -109 -194 -97 -213 15 -24 56 -25 78 -1 18 20 55 28 55 11 0 -5 -7 -25 -15 -46 l-16 -37 -52 7 c-68 9 -84 19 -92 54 -8 37 10 80 107 254 78 141 128 270 128 332 0 85 -75 148 -147 125 -20 -7 -46 -28 -62 -51 -31 -42 -41 -41 -41 5 0 54 11 78 31 73 10 -3 38 1 61 7 59 18 115 4 155 -38z m2128 0 c70 -92 93 -287 60 -496 -27 -168 -87 -260 -170 -260 -110 0 -161 108 -172 370 -11 269 37 406 152 430 48 10 103 -9 130 -44z m458 21 c33 -21 54 -64 38 -80 -9 -9 -17 -5 -37 20 -29 38 -81 58 -115 44 -27 -10 -70 -54 -88 -89 -21 -40 -41 -171 -41 -267 0 -96 20 -227 41 -267 6 -13 27 -40 47 -60 42 -44 88 -51 129 -19 41 33 55 17 31 -37 -26 -60 -25 -58 -46 -39 -10 10 -33 17 -50 17 -74 0 -135 59 -169 165 -24 75 -29 328 -9 424 19 89 51 158 87 184 51 37 129 39 182 4z m1542 -21 c70 -92 93 -287 60 -496 -27 -168 -87 -260 -170 -260 -111 0 -161 109 -172 375 -11 263 38 401 152 425 48 10 103 -9 130 -44z m1758 6 c51 -48 59 -146 22 -257 -22 -64 -98 -216 -164 -325 -28 -47 -51 -92 -51 -101 0 -40 55 -52 85 -19 19 21 55 27 55 10 0 -6 -7 -26 -15 -46 l-14 -35 -53 7 c-68 9 -84 18 -91 50 -8 43 10 88 94 239 129 232 163 351 119 422 -46 77 -134 78 -189 3 -31 -43 -41 -42 -41 4 0 54 11 78 31 73 10 -3 38 1 61 7 54 17 113 4 151 -32z m-4988 8 c28 -53 15 -65 -34 -30 -23 18 -39 20 -102 18 l-74 -3 0 -280 0 -280 63 -3 c45 -2 71 2 88 12 33 23 35 21 33 -29 -2 -25 -4 -45 -6 -45 -2 0 -14 7 -27 16 -17 10 -43 14 -88 12 l-63 -3 0 -55 0 -55 47 -3 c30 -2 61 3 83 14 44 20 52 14 35 -27 -12 -27 -17 -30 -43 -25 -16 3 -72 6 -123 6 -77 0 -94 3 -94 15 0 8 6 15 14 15 8 0 22 10 30 22 14 19 16 69 16 341 0 200 -4 325 -10 338 -6 10 -20 19 -30 19 -11 0 -20 7 -20 15 0 12 22 15 118 18 64 1 129 4 144 5 21 2 31 -5 43 -28z m845 -9 c24 -48 9 -60 -34 -24 -25 21 -37 23 -100 21 l-71 -3 -3 -353 c-2 -347 -2 -354 18 -359 11 -3 20 -12 20 -19 0 -11 -16 -14 -65 -14 -68 0 -87 16 -42 35 l22 10 0 345 0 345 -22 10 c-13 5 -23 15 -23 22 0 9 32 13 113 16 61 1 124 4 139 5 23 2 31 -5 48 -37z m2855 8 c9 -17 14 -38 11 -46 -5 -12 -12 -10 -37 12 -29 23 -38 26 -103 23 l-71 -3 -3 -353 c-2 -347 -2 -354 18 -359 11 -3 20 -12 20 -19 0 -11 -16 -14 -65 -14 -68 0 -87 16 -42 35 l22 10 0 345 0 345 -22 10 c-13 5 -23 15 -23 22 0 9 32 13 113 16 61 1 124 4 139 5 22 2 31 -5 43 -29z m970 0 c9 -17 14 -38 11 -46 -5 -12 -12 -10 -37 12 -29 24 -38 26 -108 23 l-76 -3 0 -280 0 -280 63 -3 c45 -2 71 2 88 12 13 9 25 16 27 16 3 0 5 -20 5 -45 1 -47 -7 -55 -28 -30 -10 12 -30 15 -84 13 l-71 -3 -3 -43 c-2 -24 2 -50 9 -58 16 -19 83 -18 125 2 43 20 51 14 34 -27 -12 -27 -17 -30 -43 -25 -16 3 -72 6 -123 6 -77 0 -94 3 -94 15 0 8 9 15 20 15 13 0 24 10 30 26 14 35 13 649 0 675 -6 10 -20 19 -30 19 -11 0 -20 7 -20 15 0 12 22 15 113 18 61 1 127 4 144 5 27 2 35 -3 48 -29z m-5315 7 c0 -7 -9 -16 -20 -19 -19 -5 -20 -14 -20 -285 0 -155 4 -283 8 -286 4 -2 48 -6 97 -7 l90 -2 3 281 c2 273 2 282 -18 294 -39 25 -24 38 45 38 68 0 87 -16 43 -35 l-23 -10 0 -345 0 -345 23 -10 c44 -19 25 -35 -43 -35 -69 0 -84 13 -44 38 15 10 19 21 17 50 l-3 37 -95 0 -95 0 -3 -43 c-3 -37 0 -44 17 -49 12 -3 21 -12 21 -19 0 -11 -16 -14 -65 -14 -68 0 -87 16 -42 35 l22 10 0 345 0 345 -22 10 c-45 19 -26 35 42 35 49 0 65 -3 65 -14z m870 1 c0 -7 -10 -17 -22 -22 l-23 -10 0 -280 0 -280 60 0 60 0 2 60 c9 227 36 423 70 507 14 35 18 38 54 38 43 0 55 -23 19 -35 -26 -8 -47 -49 -64 -127 -19 -81 -36 -258 -36 -364 0 -76 2 -84 23 -95 31 -17 37 -28 37 -75 0 -70 -19 -78 -176 -82 -112 -3 -134 -1 -134 11 0 8 9 17 20 20 20 5 20 14 20 357 0 343 0 352 -20 357 -11 3 -20 12 -20 19 0 11 16 14 65 14 46 0 65 -4 65 -13z m1710 -2 c0 -8 -7 -15 -15 -15 -30 0 -35 -39 -35 -284 l0 -245 45 -31 c32 -22 46 -27 49 -18 2 7 9 67 16 133 17 172 45 332 73 406 24 63 24 64 65 67 48 4 58 -17 17 -36 -29 -14 -48 -49 -69 -129 -20 -78 -53 -291 -62 -404 l-6 -86 66 -48 c36 -27 66 -55 66 -62 0 -9 -16 -13 -55 -13 -55 0 -69 12 -44 37 10 10 -14 34 -113 107 -33 25 -39 26 -44 12 -11 -28 3 -109 20 -121 32 -24 17 -35 -44 -35 -47 0 -60 3 -60 15 0 8 7 15 15 15 30 0 35 52 35 366 0 316 -4 354 -35 354 -8 0 -15 7 -15 15 0 12 14 15 65 15 51 0 65 -3 65 -15z m670 1 c0 -7 -9 -16 -19 -19 -26 -6 -27 -31 -21 -336 l5 -244 95 1 95 1 3 280 c2 272 2 281 -18 293 -39 25 -24 38 45 38 68 0 87 -16 43 -35 l-23 -10 0 -345 c0 -334 1 -345 20 -355 42 -22 27 -35 -40 -35 -69 0 -84 13 -44 38 15 10 19 21 17 50 l-3 37 -95 0 -95 0 -3 -37 c-2 -29 2 -40 17 -50 40 -25 25 -38 -44 -38 -68 0 -87 16 -42 35 l22 10 0 345 0 345 -22 10 c-45 19 -26 35 42 35 49 0 65 -3 65 -14z m1320 1 c0 -7 -10 -17 -22 -22 l-23 -10 -3 -334 c-1 -184 2 -339 6 -343 5 -5 39 19 75 53 l67 61 69 -61 c37 -33 71 -58 75 -54 3 3 6 156 6 339 l0 334 -25 16 c-40 26 -30 34 45 34 73 0 93 -15 48 -35 l-23 -10 0 -345 0 -345 23 -10 c40 -18 26 -35 -29 -35 -48 0 -56 4 -114 55 -35 30 -68 55 -73 55 -6 0 -39 -25 -75 -55 -60 -51 -68 -55 -116 -55 -55 0 -69 17 -28 35 l22 10 5 321 c3 176 3 334 0 350 -4 20 -12 30 -28 32 -12 2 -22 10 -22 18 0 11 16 14 70 14 50 0 70 -4 70 -13z m-5983 -2113 c-3 -3 -12 -4 -19 -1 -8 3 -5 6 6 6 11 1 17 -2 13 -5z"/>
 <path d="M5214 2260 c-88 -35 -129 -216 -105 -458 22 -219 95 -318 173 -234 54 57 75 126 88 287 16 199 -21 364 -90 400 -33 17 -37 17 -66 5z"/>
 <path d="M7214 2260 c-88 -36 -129 -215 -105 -458 22 -219 95 -318 173 -234 54 57 75 126 88 280 16 206 -20 371 -90 407 -33 17 -37 17 -66 5z"/>
 <path d="M4294 1636 c-3 -8 -4 -31 -2 -52 l3 -39 57 -3 c34 -2 71 3 93 12 31 13 36 20 33 43 -4 37 -38 53 -116 53 -44 0 -64 -4 -68 -14z"/>
 <path d="M1436 141 c-18 -20 -18 -21 8 -32 35 -16 81 -1 81 26 0 29 -64 33 -89 6z"/>
 </g>

</svg>